<?xml version="1.0" standalone="no"?>
<!DOCTYPE svg PUBLIC "-//W3C//DTD SVG 20010904//EN"
 "http://www.w3.org/TR/2001/REC-SVG-20010904/DTD/svg10.dtd">
<svg version="1.0" xmlns="http://www.w3.org/2000/svg"
 width="1267.000000pt" height="1267.000000pt" viewBox="0 0 1267.000000 1267.000000"
 preserveAspectRatio="xMidYMid meet">
<metadata>
Created by potrace 1.14, written by Peter Selinger 2001-2017
</metadata>
<g transform="translate(0.000000,1267.000000) scale(0.100000,-0.100000)"
fill="#000000" stroke="none">
<path d="M0 6340 l0 -4750 6335 0 6335 0 0 4750 0 4750 -6335 0 -6335 0 0
-4750z m6413 1840 c4 -14 0 -20 -12 -20 -10 0 -21 -3 -24 -7 -4 -3 -19 -8 -33
-9 -25 -3 -25 -2 -8 11 11 8 25 15 32 15 7 0 15 7 18 15 8 21 21 19 27 -5z
m281 -25 c90 -34 183 -94 241 -156 54 -58 53 -76 -2 -30 -21 17 -53 44 -71 59
-19 15 -41 35 -50 45 -18 18 -37 24 -27 7 3 -5 2 -10 -4 -10 -5 0 -12 4 -16 9
-3 6 -13 10 -23 10 -72 0 -141 39 -142 79 0 18 19 15 94 -13z m-54 -131 c0 -3
-7 -12 -15 -21 -20 -19 -32 -9 -15 12 12 15 30 20 30 9z m-165 -24 c3 -5 -1
-10 -10 -10 -9 0 -13 5 -10 10 3 6 8 10 10 10 2 0 7 -4 10 -10z m270 -10 c3
-5 2 -10 -4 -10 -5 0 -13 5 -16 10 -3 6 -2 10 4 10 5 0 13 -4 16 -10z m-615
-14 c0 -3 -4 -8 -10 -11 -5 -3 -10 -1 -10 4 0 6 5 11 10 11 6 0 10 -2 10 -4z
m366 -11 c-3 -8 -1 -15 4 -15 6 0 10 -7 10 -15 0 -17 -16 -20 -25 -5 -7 11 3
50 12 50 3 0 3 -7 -1 -15z m-393 -10 c4 -8 2 -17 -3 -20 -6 -4 -10 3 -10 14 0
25 6 27 13 6z m775 -41 c-4 -3 -12 5 -18 18 -12 22 -12 22 6 6 10 -10 15 -20
12 -24z m-678 -8 c0 -8 -5 -18 -12 -22 -7 -5 -8 -3 -3 7 8 12 6 12 -8 0 -15
-11 -17 -11 -17 1 0 8 3 18 7 21 12 12 33 7 33 -7z m714 -11 c3 -9 0 -15 -9
-15 -8 0 -15 7 -15 15 0 8 4 15 9 15 5 0 11 -7 15 -15z m-874 -55 c0 -12 -28
-25 -36 -17 -9 9 6 27 22 27 8 0 14 -5 14 -10z m-40 -40 c0 -5 -4 -10 -10 -10
-5 0 -10 5 -10 10 0 6 5 10 10 10 6 0 10 -4 10 -10z m1010 -200 c0 -5 -4 -10
-10 -10 -5 0 -10 5 -10 10 0 6 5 10 10 10 6 0 10 -4 10 -10z m-645 -64 c16
-32 17 -39 5 -47 -12 -7 -12 -11 -3 -17 9 -5 10 -17 4 -37 -5 -17 -10 -22 -10
-12 -1 9 -6 17 -12 17 -7 0 -9 -9 -5 -22 6 -23 -13 -78 -26 -78 -5 0 -8 11 -8
23 0 13 -3 26 -6 30 -9 8 -54 -14 -54 -27 0 -6 -4 -4 -10 4 -8 12 -10 12 -15
-3 -4 -9 0 -23 8 -32 14 -14 17 -13 31 7 l16 22 0 -26 c0 -14 6 -29 13 -31 6
-3 0 -6 -14 -6 -26 -1 -50 17 -83 63 -28 38 -39 32 -31 -16 l7 -43 -23 25 -24
25 -3 -23 c-4 -23 -18 -30 -24 -10 -5 14 -38 20 -38 7 0 -5 4 -9 8 -9 5 0 14
-18 21 -40 6 -22 16 -40 22 -40 5 0 18 -20 29 -45 17 -40 28 -48 56 -44 4 0
10 -5 14 -11 5 -9 10 -5 15 11 5 14 3 25 -4 27 -6 2 -11 10 -11 18 0 8 -3 14
-7 14 -14 0 -34 53 -24 63 11 11 41 -14 41 -35 0 -11 2 -11 9 0 10 17 29 -4
40 -44 l7 -27 29 27 c30 28 45 22 45 -16 0 -13 8 -18 27 -18 14 0 24 -3 20 -6
-6 -7 16 -45 52 -90 15 -18 25 -24 28 -16 3 6 21 12 41 12 28 0 33 -3 24 -12
-7 -7 -12 -27 -12 -45 0 -18 -4 -33 -10 -33 -5 0 -10 5 -10 10 0 6 -7 10 -15
10 -12 0 -13 -4 -5 -19 15 -29 14 -30 -30 -37 -37 -6 -40 -9 -40 -40 0 -39
-14 -45 -24 -11 -6 22 -6 22 -21 2 -8 -11 -18 -25 -23 -30 -5 -6 -6 -17 -4
-24 3 -10 0 -12 -12 -8 -10 4 -27 2 -38 -4 -23 -13 -88 2 -150 33 -43 21 -48
34 -16 44 15 4 26 1 36 -12 8 -11 16 -15 18 -8 5 13 54 6 54 -7 0 -5 7 -6 15
-3 18 7 0 40 -27 47 -10 3 -18 9 -17 14 1 4 -3 20 -9 34 -6 15 -10 50 -8 78 2
48 0 53 -41 93 -24 23 -43 50 -43 59 0 10 -15 32 -34 49 -37 35 -62 110 -35
102 5 -1 14 10 20 25 28 76 34 84 56 78 30 -7 56 20 43 45 -6 10 -10 23 -10
29 0 12 73 2 79 -11 1 -5 9 -1 15 8 11 15 15 13 36 -17 14 -19 28 -36 32 -37
5 -2 5 -9 2 -14 -4 -7 -2 -8 4 -4 20 12 14 46 -7 46 -14 0 -18 5 -14 20 4 15
0 20 -13 20 -16 0 -16 1 2 19 10 10 22 17 27 14 4 -2 7 1 7 7 0 22 25 3 45
-34z m371 -13 c19 -26 17 -33 -10 -33 -30 0 -42 16 -26 35 16 19 20 19 36 -2z
m-726 -2 c0 -6 -4 -13 -10 -16 -5 -3 -10 1 -10 9 0 9 5 16 10 16 6 0 10 -4 10
-9z m490 -117 c0 -8 -4 -12 -10 -9 -5 3 -10 10 -10 16 0 5 5 9 10 9 6 0 10 -7
10 -16z m625 -77 c-9 -31 -22 -61 -30 -67 -8 -7 -15 -23 -15 -37 0 -31 -25
-79 -45 -87 -9 -3 -14 -9 -11 -14 2 -4 1 -14 -5 -22 -7 -12 -9 -10 -9 7 0 24
-22 43 -28 25 -4 -14 -32 -16 -32 -2 0 15 32 27 67 25 37 -2 40 2 53 96 6 44
19 81 35 105 14 20 26 42 26 48 1 6 3 4 6 -6 2 -9 -3 -41 -12 -71z m-660 63
c3 -5 -1 -10 -9 -10 -8 0 -18 5 -21 10 -3 6 1 10 9 10 8 0 18 -4 21 -10z m70
-17 c-11 -7 -22 -13 -27 -13 -14 0 -8 19 9 29 25 13 40 1 18 -16z m-659 -106
c-1 -26 -5 -49 -8 -52 -8 -8 -68 63 -68 82 0 8 9 24 21 34 20 17 22 17 40 1
14 -13 17 -29 15 -65z m594 63 c0 -5 -5 -10 -11 -10 -5 0 -7 5 -4 10 3 6 8 10
11 10 2 0 4 -4 4 -10z m-455 -49 c3 -5 1 -12 -4 -15 -5 -3 -11 1 -15 9 -6 16
9 21 19 6z m325 -7 c0 -17 -22 -14 -28 4 -2 7 3 12 12 12 9 0 16 -7 16 -16z
m50 -30 c0 -8 -5 -12 -10 -9 -6 4 -8 11 -5 16 9 14 15 11 15 -7z m25 -33 c3
-5 1 -12 -5 -16 -5 -3 -10 1 -10 9 0 18 6 21 15 7z m615 -10 c0 -10 -7 -21
-15 -24 -12 -5 -12 -2 -3 18 13 30 18 31 18 6z m-951 -5 c10 -12 8 -13 -8 -9
-12 3 -21 9 -21 14 0 14 16 11 29 -5z m-120 -111 c0 -5 -8 1 -19 14 -11 12
-17 28 -14 33 7 11 33 -28 33 -47z m186 25 c3 -5 -1 -10 -9 -10 -9 0 -16 5
-16 10 0 6 4 10 9 10 6 0 13 -4 16 -10z m695 -15 c0 -8 -4 -15 -10 -15 -5 0
-10 7 -10 15 0 8 5 15 10 15 6 0 10 -7 10 -15z m-686 -11 c23 -9 20 -24 -4
-24 -11 0 -20 7 -20 15 0 17 2 18 24 9z m814 -16 c18 -18 15 -26 -18 -43 -17
-9 -29 -19 -26 -23 5 -8 -8 -10 -71 -14 -21 -1 -44 -8 -51 -15 -18 -17 -62
-17 -62 1 0 14 114 76 141 76 8 0 24 7 35 15 23 18 36 19 52 3z m-793 -78 c3
-5 1 -10 -4 -10 -6 0 -11 5 -11 10 0 6 2 10 4 10 3 0 8 -4 11 -10z m425 -60
c0 -5 -4 -10 -10 -10 -5 0 -10 5 -10 10 0 6 5 10 10 10 6 0 10 -4 10 -10z
m-417 -7 c-7 -2 -19 -2 -25 0 -7 3 -2 5 12 5 14 0 19 -2 13 -5z m602 -3 c-3
-5 -11 -10 -16 -10 -6 0 -7 5 -4 10 3 6 11 10 16 10 6 0 7 -4 4 -10z m-269
-100 c15 0 23 -4 19 -10 -4 -6 -23 -11 -43 -11 -20 1 -54 -1 -75 -3 -20 -2
-40 0 -43 5 -5 9 22 13 58 10 9 -1 19 3 23 9 4 6 14 9 22 6 8 -3 26 -6 39 -6z
m1741 -326 c285 -124 583 -254 663 -289 81 -35 290 -109 475 -168 182 -58 577
-184 879 -281 l550 -176 210 -160 c116 -88 348 -265 516 -393 l305 -233 3 -56
3 -55 -146 -52 c-81 -28 -149 -51 -152 -51 -9 0 -609 -195 -1173 -382 -479
-158 -541 -176 -876 -254 -199 -45 -619 -144 -935 -218 -316 -74 -727 -171
-914 -215 l-341 -80 -599 -279 c-330 -154 -762 -355 -960 -447 -198 -92 -372
-173 -386 -181 -27 -13 -30 -10 -637 569 l-609 582 -909 354 c-500 195 -940
366 -977 380 -69 26 -69 26 -635 600 l-567 574 -3 56 -3 56 983 302 983 301
155 11 c85 6 385 29 665 50 1121 88 1424 111 1452 111 26 0 34 -8 73 -77 213
-380 492 -777 874 -1243 l176 -215 -62 -14 -63 -14 38 -13 c76 -27 272 -23
301 6 8 8 -32 22 -87 32 -21 3 -3 28 189 254 424 502 787 1041 988 1472 17 34
31 62 32 62 2 0 236 -102 521 -226z"/>
<path d="M6261 7478 c0 -10 -8 -18 -16 -18 -9 0 -15 -9 -15 -25 0 -14 5 -25
11 -25 5 0 7 5 4 11 -4 6 1 16 10 23 10 7 15 20 12 32 -4 16 -5 16 -6 2z"/>
<path d="M6490 7010 c0 -5 7 -10 15 -10 8 0 15 5 15 10 0 6 -7 10 -15 10 -8 0
-15 -4 -15 -10z"/>
<path d="M6845 7010 c-3 -5 -1 -10 4 -10 6 0 11 5 11 10 0 6 -2 10 -4 10 -3 0
-8 -4 -11 -10z"/>
</g>
</svg>
